<svg xmlns="http://www.w3.org/2000/svg" version="1.1" xmlns:xlink="http://www.w3.org/1999/xlink" xmlns:svgjs="http://svgjs.dev/svgjs" width="2000" height="1999" viewBox="0 0 2000 1999"><g transform="matrix(1,0,0,1,-0.431486880466764,-0.4312711370263287)"><svg viewBox="0 0 343 343" data-background-color="#ffffff" preserveAspectRatio="xMidYMid meet" height="1999" width="2000" xmlns="http://www.w3.org/2000/svg" xmlns:xlink="http://www.w3.org/1999/xlink"><g id="tight-bounds" transform="matrix(1,0,0,1,0.0740000000000407,0.07400000000001228)"><svg viewBox="0 0 342.85155851775386 342.85155851775386" height="342.85155851775386" width="342.85155851775386"><g><svg></svg></g><g><svg viewBox="0 0 342.85155851775386 342.85155851775386" height="342.85155851775386" width="342.85155851775386"><g><path d="M0 171.426c0-94.676 76.75-171.426 171.426-171.426 94.676 0 171.426 76.75 171.426 171.426 0 94.676-76.75 171.426-171.426 171.426-94.676 0-171.426-76.75-171.426-171.426zM171.426 337.804c91.888 0 166.378-74.49 166.378-166.378 0-91.888-74.49-166.378-166.378-166.378-91.888 0-166.378 74.49-166.378 166.378 0 91.888 74.49 166.378 166.378 166.378z" data-fill-palette-color="tertiary" fill="#000000" stroke="transparent"></path><ellipse rx="164.56874808852186" ry="164.56874808852186" cx="171.42577925887693" cy="171.42577925887693" fill="#000000" stroke="transparent" stroke-width="0" fill-opacity="1" data-fill-palette-color="tertiary"></ellipse></g><g transform="matrix(1,0,0,1,64.84655864529837,126.14998460569998)"><svg viewBox="0 0 213.1584412271571 90.55158930635389" height="90.55158930635389" width="213.1584412271571"><g><svg viewBox="0 0 213.1584412271571 90.55158930635389" height="90.55158930635389" width="213.1584412271571"><g><svg viewBox="0 0 213.1584412271571 90.55158930635389" height="90.55158930635389" width="213.1584412271571"><g><svg viewBox="0 0 213.1584412271571 90.55158930635389" height="90.55158930635389" width="213.1584412271571"><g id="textblocktransform"><svg viewBox="0 0 213.1584412271571 90.55158930635389" height="90.55158930635389" width="213.1584412271571" id="textblock"><g><svg viewBox="0 0 213.1584412271571 90.55158930635389" height="90.55158930635389" width="213.1584412271571"><g transform="matrix(1,0,0,1,0,0)"><svg width="213.1584412271571" viewBox="2 -25 58.85 25" height="90.55158930635389" data-palette-color="#ffffff"><path d="M13.7-3.85Q16.05-3.3 18.2-3.3 20.35-3.3 21.63-4.28 22.9-5.25 23.5-7.65L23.5-7.65 29.5-7.45Q28.75-2.95 27.5 0L27.5 0 2.95 0Q2-6.4 2-13.25 2-20.1 2.7-25L2.7-25 17.1-25Q13.8-12.35 13.7-3.85L13.7-3.85ZM50.85-14.95L50.85-14.95 55.55-14.65Q56.25-14.65 56.6-14.7L56.6-14.7 54.25-10.3 53.8-10.3Q52.85-10.3 51.1-10.83 49.35-11.35 48.6-11.35L48.6-11.35Q46.55-11.35 45.35-8.7L45.35-8.7Q45.15-6.25 45.05-3.8L45.05-3.8Q47.65-3.3 49.15-3.3L49.15-3.3 49.6-3.3Q51.75-3.3 53.02-4.25 54.3-5.2 54.85-7.65L54.85-7.65 60.85-7.4Q60.1-3.1 58.85 0L58.85 0 34.3 0Q33.3-6.75 33.3-13.4 33.3-20.05 34-25L34-25 60.8-25Q59.9-19.6 59.2-17.4L59.2-17.4Q56.25-17.25 53.8-17.2L53.8-17.2Q54.2-18.35 54.2-19.35L54.2-19.35Q54.2-21.75 50.6-21.75L50.6-21.75Q49.25-21.75 47.6-21.45L47.6-21.45Q46.5-16.7 45.9-13.1L45.9-13.1Q47.9-14.95 50.85-14.95Z" opacity="1" transform="matrix(1,0,0,1,0,0)" fill="#ffffff" class="wordmark-text-0" data-fill-palette-color="quaternary" id="text-0"></path></svg></g></svg></g></svg></g></svg></g><g></g></svg></g></svg></g></svg></g></svg></g><defs></defs></svg><rect width="342.85155851775386" height="342.85155851775386" fill="none" stroke="none" visibility="hidden"></rect></g></svg></g></svg>