<svg xmlns="http://www.w3.org/2000/svg" xmlns:xlink="http://www.w3.org/1999/xlink" width="450" zoomAndPan="magnify" viewBox="0 0 337.5 268.499992" height="358" preserveAspectRatio="xMidYMid meet" version="1.0"><defs><clipPath id="bc43c2f147"><path d="M 0.0625 0 L 336.9375 0 L 336.9375 268 L 0.0625 268 Z M 0.0625 0 " clip-rule="nonzero"/></clipPath></defs><g clip-path="url(#bc43c2f147)"><path fill="#ffffff" d="M 0.0625 0 L 337.4375 0 L 337.4375 275.144531 L 0.0625 275.144531 Z M 0.0625 0 " fill-opacity="1" fill-rule="nonzero"/><path fill="#ffffff" d="M 0.0625 0 L 337.4375 0 L 337.4375 268.398438 L 0.0625 268.398438 Z M 0.0625 0 " fill-opacity="1" fill-rule="nonzero"/><path fill="#ffffff" d="M 0.0625 0 L 337.4375 0 L 337.4375 268.398438 L 0.0625 268.398438 Z M 0.0625 0 " fill-opacity="1" fill-rule="nonzero"/><path fill="#7e13f8" d="M 70.199219 0 C 50.960938 0 36.722656 16.820312 37.359375 35.0625 C 37.972656 52.585938 37.179688 75.285156 31.457031 93.796875 C 25.722656 112.363281 16.015625 124.121094 0.167969 125.632812 L 0.167969 142.675781 C 16.015625 144.1875 25.722656 155.945312 31.457031 174.511719 C 37.179688 193.023438 37.972656 215.71875 37.359375 233.246094 C 36.722656 251.484375 50.960938 268.308594 70.199219 268.308594 L 267.328125 268.308594 C 286.566406 268.308594 300.796875 251.488281 300.160156 233.246094 C 299.550781 215.722656 300.34375 193.023438 306.0625 174.511719 C 311.804688 155.949219 321.484375 144.1875 337.332031 142.675781 L 337.332031 125.632812 C 321.484375 124.121094 311.804688 112.363281 306.066406 93.796875 C 300.34375 75.289062 299.550781 52.589844 300.160156 35.0625 C 300.796875 16.824219 286.566406 0 267.328125 0 L 70.195312 0 Z M 228.753906 165.160156 C 228.753906 190.28125 210 205.511719 178.875 205.511719 L 125.890625 205.511719 C 125.515625 205.511719 125.144531 205.476562 124.777344 205.402344 C 124.40625 205.328125 124.050781 205.222656 123.703125 205.078125 C 123.359375 204.933594 123.027344 204.757812 122.714844 204.550781 C 122.40625 204.339844 122.117188 204.105469 121.851562 203.839844 C 121.585938 203.574219 121.347656 203.285156 121.140625 202.976562 C 120.933594 202.664062 120.753906 202.335938 120.613281 201.988281 C 120.46875 201.640625 120.359375 201.285156 120.285156 200.917969 C 120.214844 200.550781 120.175781 200.179688 120.175781 199.804688 L 120.175781 68.503906 C 120.175781 68.128906 120.214844 67.757812 120.285156 67.390625 C 120.359375 67.023438 120.46875 66.664062 120.613281 66.320312 C 120.753906 65.972656 120.929688 65.644531 121.140625 65.332031 C 121.347656 65.019531 121.585938 64.730469 121.851562 64.46875 C 122.117188 64.203125 122.40625 63.964844 122.714844 63.757812 C 123.027344 63.546875 123.359375 63.371094 123.703125 63.230469 C 124.050781 63.085938 124.410156 62.976562 124.777344 62.90625 C 125.144531 62.832031 125.515625 62.792969 125.890625 62.792969 L 178.574219 62.792969 C 204.523438 62.792969 221.558594 76.839844 221.558594 98.402344 C 221.558594 113.535156 210.097656 127.082031 195.5 129.457031 L 195.5 130.246094 C 215.375 132.425781 228.753906 146.171875 228.753906 165.160156 Z M 173.097656 80.890625 L 142.886719 80.890625 L 142.886719 123.519531 L 168.332031 123.519531 C 188 123.519531 198.847656 115.605469 198.847656 101.464844 C 198.847656 88.210938 189.519531 80.890625 173.097656 80.890625 Z M 142.886719 140.433594 L 142.886719 187.410156 L 174.210938 187.410156 C 194.6875 187.410156 205.535156 179.203125 205.535156 163.773438 C 205.535156 148.34375 194.386719 140.429688 172.890625 140.429688 L 142.886719 140.429688 Z M 142.886719 140.433594 " fill-opacity="1" fill-rule="nonzero"/></g></svg>