<svg xmlns="http://www.w3.org/2000/svg" width="1em" height="1em" viewBox="0 0 128 128"><path fill="#E44D26" d="m27.854 116.354l-8.043-90.211h88.378l-8.051 90.197l-36.192 10.033z"/><path fill="#F16529" d="m64 118.704l29.244-8.108l6.881-77.076H64z"/><path fill="#EBEBEB" d="M64 66.978H49.359l-1.01-11.331H64V44.583H36.257l.264 2.969l2.72 30.489H64zm0 28.733l-.049.013l-12.321-3.328l-.788-8.823H39.735l1.55 17.372l22.664 6.292l.051-.015z"/><path d="M28.034 1.627h5.622v5.556H38.8V1.627h5.623v16.822H38.8v-5.633h-5.143v5.633h-5.623V1.627zm23.782 5.579h-4.95V1.627h15.525v5.579h-4.952v11.243h-5.623V7.206zm13.039-5.579h5.862l3.607 5.911l3.603-5.911h5.865v16.822h-5.601v-8.338l-3.867 5.981h-.098l-3.87-5.981v8.338h-5.502V1.627zm21.736 0h5.624v11.262h7.907v5.561H86.591V1.627z"/><path fill="#fff" d="M63.962 66.978v11.063h13.624L76.302 92.39l-12.34 3.331v11.51l22.682-6.286l.166-1.87l2.6-29.127l.27-2.97h-2.982zm0-22.395v11.064h26.725l.221-2.487l.505-5.608l.265-2.969z"/></svg>