<svg xmlns="http://www.w3.org/2000/svg" version="1.1" xmlns:xlink="http://www.w3.org/1999/xlink" xmlns:svgjs="http://svgjs.dev/svgjs" width="1000" height="623" viewBox="0 0 1000 623"><g transform="matrix(1,0,0,1,-0.6060606060606233,0.2522267206477977)"><svg viewBox="0 0 396 247" data-background-color="#ffffff" preserveAspectRatio="xMidYMid meet" height="623" width="1000" xmlns="http://www.w3.org/2000/svg" xmlns:xlink="http://www.w3.org/1999/xlink"><g id="tight-bounds" transform="matrix(1,0,0,1,0.2400000000000091,-0.09999999999999432)"><svg viewBox="0 0 395.52 247.2" height="247.2" width="395.52"><g><svg></svg></g><g><svg viewBox="0 0 395.52 247.2" height="247.2" width="395.52"><g transform="matrix(1,0,0,1,75.54432,57.40754396369138)"><svg viewBox="0 0 244.43135999999998 132.38491207261723" height="132.38491207261723" width="244.43135999999998"><g><svg viewBox="0 0 244.43135999999998 132.38491207261723" height="132.38491207261723" width="244.43135999999998"><g><svg viewBox="0 0 244.43135999999998 132.38491207261723" height="132.38491207261723" width="244.43135999999998"><g><svg viewBox="0 0 244.43135999999998 132.38491207261723" height="132.38491207261723" width="244.43135999999998"><g id="textblocktransform"><svg viewBox="0 0 244.43135999999998 132.38491207261723" height="132.38491207261723" width="244.43135999999998" id="textblock"><g><svg viewBox="0 0 244.43135999999998 132.38491207261723" height="132.38491207261723" width="244.43135999999998"><g transform="matrix(1,0,0,1,0,0)"><svg width="244.43135999999998" viewBox="0 -35.79999923706055 66.0999984741211 35.79999923706055" height="132.38491207261723" data-palette-color="#1ebbd7"><path d="M0-2.15L4.85-2.15 4.85-34.95 10.75-34.95 10.75-17.9 26.75-34.95 34.25-34.95 20.2-19.65 32.9-2.1 32.9-2.15 37.75-2.15 37.75 0 27.45 0 15.85-15.3 10.75-9.8 10.75 0 0 0 0-2.15ZM59.85-2.15L66.1-2.15 66.1 0 34.6 0 34.6-2.15 41-2.15Q38.6-3.4 36.6-5.25L36.6-5.25 40.3-9.7Q45.6-5.1 51.3-5.1L51.3-5.1Q54.15-5.1 55.82-6.33 57.5-7.55 57.5-9.58 57.5-11.6 55.92-12.73 54.35-13.85 50.5-14.78 46.65-15.7 44.65-16.48 42.65-17.25 41.1-18.5L41.1-18.5Q38-20.85 38-25.7 38-30.55 41.52-33.18 45.05-35.8 50.25-35.8L50.25-35.8Q53.6-35.8 56.9-34.7 60.2-33.6 62.6-31.6L62.6-31.6 59.45-27.15Q57.9-28.55 55.25-29.45 52.6-30.35 50.02-30.35 47.45-30.35 45.8-29.3 44.15-28.25 44.15-26.13 44.15-24 45.8-22.88 47.45-21.75 52.82-20.45 58.2-19.15 60.92-16.8 63.65-14.45 63.65-10.2L63.65-10.2Q63.65-5.05 59.85-2.15L59.85-2.15Z" opacity="1" transform="matrix(1,0,0,1,0,0)" fill="#1ebbd7" class="undefined-text-0" data-fill-palette-color="primary" id="text-0"></path></svg></g></svg></g></svg></g></svg></g></svg></g></svg></g></svg></g><g><path d="M245.816 0c68.262 0 123.6 55.338 123.6 123.6 0 68.262-55.338 123.6-123.6 123.6-36.886 0-69.998-16.158-92.645-41.781l8.13 0c21.384 22.084 51.346 35.812 84.515 35.812 64.966 0 117.631-52.665 117.63-117.631 0-64.966-52.665-117.631-117.63-117.631-33.168 0-63.13 13.728-84.515 35.812h-8.13c22.647-25.624 55.759-41.781 92.645-41.781z" fill="#1ebbd7" stroke="transparent" data-fill-palette-color="tertiary"></path></g></svg></g><defs></defs></svg><rect width="395.52" height="247.2" fill="none" stroke="none" visibility="hidden"></rect></g></svg></g></svg>