<svg xmlns="http://www.w3.org/2000/svg" xmlns:xlink="http://www.w3.org/1999/xlink" width="64" zoomAndPan="magnify" viewBox="0 0 48 48" height="64" preserveAspectRatio="xMidYMid meet" version="1.0"><defs><g/></defs><g fill="#ffc1b2" fill-opacity="0.302"><g transform="translate(-0.626481, 43.459947)"><g><path d="M 31.636719 -9.617188 L 31.113281 -9.183594 C 30.636719 -8.746094 30.113281 -8.574219 29.546875 -8.574219 L 16.058594 -8.574219 C 15.753906 -8.574219 15.492188 -8.660156 15.316406 -8.832031 C 15.101562 -9.007812 15.011719 -9.269531 15.011719 -9.617188 L 15.011719 -39.382812 C 15.011719 -40.382812 15.359375 -41.296875 16.058594 -42.078125 L 16.101562 -42.125 C 16.230469 -42.339844 16.230469 -42.558594 16.144531 -42.820312 C 16.015625 -43.039062 15.796875 -43.167969 15.535156 -43.167969 L 5.917969 -43.167969 C 5.613281 -43.167969 5.394531 -43.039062 5.308594 -42.820312 C 5.179688 -42.558594 5.179688 -42.339844 5.351562 -42.125 C 6.046875 -41.339844 6.398438 -40.425781 6.398438 -39.425781 L 6.398438 -0.957031 C 6.398438 -0.652344 6.484375 -0.390625 6.703125 -0.21875 C 6.875 0 7.136719 0.0859375 7.441406 0.0859375 L 29.546875 0.0859375 C 30.113281 0.0859375 30.636719 0.304688 31.113281 0.695312 L 31.636719 1.132812 C 31.855469 1.304688 32.070312 1.304688 32.332031 1.175781 C 32.550781 1.089844 32.679688 0.871094 32.679688 0.566406 L 32.679688 -9.050781 C 32.679688 -9.3125 32.550781 -9.53125 32.332031 -9.660156 C 32.070312 -9.746094 31.855469 -9.746094 31.636719 -9.617188 Z M 31.636719 -9.617188 "/></g></g></g><g fill="#ffc1b2" fill-opacity="0.502"><g transform="translate(0.525152, 43.948786)"><g><path d="M 31.636719 -9.617188 L 31.113281 -9.183594 C 30.636719 -8.746094 30.113281 -8.574219 29.546875 -8.574219 L 16.058594 -8.574219 C 15.753906 -8.574219 15.492188 -8.660156 15.316406 -8.832031 C 15.101562 -9.007812 15.011719 -9.269531 15.011719 -9.617188 L 15.011719 -39.382812 C 15.011719 -40.382812 15.359375 -41.296875 16.058594 -42.078125 L 16.101562 -42.125 C 16.230469 -42.339844 16.230469 -42.558594 16.144531 -42.820312 C 16.015625 -43.039062 15.796875 -43.167969 15.535156 -43.167969 L 5.917969 -43.167969 C 5.613281 -43.167969 5.394531 -43.039062 5.308594 -42.820312 C 5.179688 -42.558594 5.179688 -42.339844 5.351562 -42.125 C 6.046875 -41.339844 6.398438 -40.425781 6.398438 -39.425781 L 6.398438 -0.957031 C 6.398438 -0.652344 6.484375 -0.390625 6.703125 -0.21875 C 6.875 0 7.136719 0.0859375 7.441406 0.0859375 L 29.546875 0.0859375 C 30.113281 0.0859375 30.636719 0.304688 31.113281 0.695312 L 31.636719 1.132812 C 31.855469 1.304688 32.070312 1.304688 32.332031 1.175781 C 32.550781 1.089844 32.679688 0.871094 32.679688 0.566406 L 32.679688 -9.050781 C 32.679688 -9.3125 32.550781 -9.53125 32.332031 -9.660156 C 32.070312 -9.746094 31.855469 -9.746094 31.636719 -9.617188 Z M 31.636719 -9.617188 "/></g></g></g><g fill="#000000" fill-opacity="1"><g transform="translate(1.676785, 44.437626)"><g><path d="M 31.636719 -9.617188 L 31.113281 -9.183594 C 30.636719 -8.746094 30.113281 -8.574219 29.546875 -8.574219 L 16.058594 -8.574219 C 15.753906 -8.574219 15.492188 -8.660156 15.316406 -8.832031 C 15.101562 -9.007812 15.011719 -9.269531 15.011719 -9.617188 L 15.011719 -39.382812 C 15.011719 -40.382812 15.359375 -41.296875 16.058594 -42.078125 L 16.101562 -42.125 C 16.230469 -42.339844 16.230469 -42.558594 16.144531 -42.820312 C 16.015625 -43.039062 15.796875 -43.167969 15.535156 -43.167969 L 5.917969 -43.167969 C 5.613281 -43.167969 5.394531 -43.039062 5.308594 -42.820312 C 5.179688 -42.558594 5.179688 -42.339844 5.351562 -42.125 C 6.046875 -41.339844 6.398438 -40.425781 6.398438 -39.425781 L 6.398438 -0.957031 C 6.398438 -0.652344 6.484375 -0.390625 6.703125 -0.21875 C 6.875 0 7.136719 0.0859375 7.441406 0.0859375 L 29.546875 0.0859375 C 30.113281 0.0859375 30.636719 0.304688 31.113281 0.695312 L 31.636719 1.132812 C 31.855469 1.304688 32.070312 1.304688 32.332031 1.175781 C 32.550781 1.089844 32.679688 0.871094 32.679688 0.566406 L 32.679688 -9.050781 C 32.679688 -9.3125 32.550781 -9.53125 32.332031 -9.660156 C 32.070312 -9.746094 31.855469 -9.746094 31.636719 -9.617188 Z M 31.636719 -9.617188 "/></g></g></g><g fill="#ffc1b2" fill-opacity="0.302"><g transform="translate(12.211889, 33.100471)"><g><path d="M 24.542969 -33.75 C 23.972656 -33.210938 23.296875 -32.972656 22.554688 -32.972656 L 4.585938 -32.972656 C 4.347656 -32.972656 4.179688 -32.871094 4.113281 -32.671875 C 4.011719 -32.46875 4.011719 -32.300781 4.148438 -32.128906 L 4.25 -32.03125 C 4.789062 -31.421875 5.058594 -30.714844 5.058594 -29.90625 L 5.058594 -2.527344 C 5.058594 -2.125 4.988281 -1.753906 4.855469 -1.382812 C 4.71875 -1.011719 4.519531 -0.675781 4.25 -0.40625 L 4.148438 -0.304688 C 4.011719 -0.101562 4.011719 0.0664062 4.113281 0.269531 C 4.179688 0.472656 4.347656 0.539062 4.585938 0.539062 L 22.554688 0.539062 C 23.296875 0.539062 23.972656 0.808594 24.542969 1.316406 C 24.714844 1.484375 24.914062 1.515625 25.117188 1.417969 C 25.320312 1.347656 25.453125 1.179688 25.453125 0.910156 L 25.453125 -6.609375 C 25.453125 -6.808594 25.355469 -6.980469 25.152344 -7.082031 C 24.949219 -7.148438 24.746094 -7.113281 24.613281 -6.980469 C 24.003906 -6.40625 23.296875 -6.136719 22.488281 -6.136719 L 12.574219 -6.136719 C 12.339844 -6.136719 12.136719 -6.203125 11.96875 -6.371094 C 11.800781 -6.507812 11.734375 -6.710938 11.734375 -6.980469 L 11.734375 -12.035156 C 11.734375 -12.273438 11.800781 -12.472656 11.96875 -12.644531 C 12.136719 -12.777344 12.339844 -12.878906 12.574219 -12.878906 L 15.542969 -12.878906 C 16.351562 -12.878906 17.058594 -12.574219 17.667969 -12.035156 C 17.835938 -11.902344 18.003906 -11.902344 18.207031 -12.003906 C 18.410156 -12.105469 18.507812 -12.273438 18.507812 -12.472656 L 18.507812 -19.960938 C 18.507812 -20.160156 18.410156 -20.296875 18.207031 -20.398438 C 18.003906 -20.5 17.835938 -20.5 17.667969 -20.398438 C 17.058594 -19.824219 16.351562 -19.554688 15.542969 -19.554688 L 12.574219 -19.554688 C 12.339844 -19.554688 12.136719 -19.621094 11.96875 -19.789062 C 11.800781 -19.925781 11.734375 -20.128906 11.734375 -20.398438 L 11.734375 -25.453125 C 11.734375 -25.691406 11.800781 -25.894531 11.96875 -26.0625 C 12.136719 -26.195312 12.339844 -26.296875 12.574219 -26.296875 L 22.488281 -26.296875 C 23.296875 -26.296875 24.003906 -25.996094 24.613281 -25.453125 C 24.746094 -25.285156 24.949219 -25.253906 25.152344 -25.355469 C 25.355469 -25.421875 25.453125 -25.589844 25.453125 -25.824219 L 25.453125 -33.378906 C 25.453125 -33.582031 25.320312 -33.75 25.117188 -33.851562 C 24.914062 -33.917969 24.714844 -33.882812 24.542969 -33.75 Z M 24.542969 -33.75 "/></g></g></g><g fill="#ffc1b2" fill-opacity="0.502"><g transform="translate(13.104288, 33.479271)"><g><path d="M 24.542969 -33.75 C 23.972656 -33.210938 23.296875 -32.972656 22.554688 -32.972656 L 4.585938 -32.972656 C 4.347656 -32.972656 4.179688 -32.871094 4.113281 -32.671875 C 4.011719 -32.46875 4.011719 -32.300781 4.148438 -32.128906 L 4.25 -32.03125 C 4.789062 -31.421875 5.058594 -30.714844 5.058594 -29.90625 L 5.058594 -2.527344 C 5.058594 -2.125 4.988281 -1.753906 4.855469 -1.382812 C 4.71875 -1.011719 4.519531 -0.675781 4.25 -0.40625 L 4.148438 -0.304688 C 4.011719 -0.101562 4.011719 0.0664062 4.113281 0.269531 C 4.179688 0.472656 4.347656 0.539062 4.585938 0.539062 L 22.554688 0.539062 C 23.296875 0.539062 23.972656 0.808594 24.542969 1.316406 C 24.714844 1.484375 24.914062 1.515625 25.117188 1.417969 C 25.320312 1.347656 25.453125 1.179688 25.453125 0.910156 L 25.453125 -6.609375 C 25.453125 -6.808594 25.355469 -6.980469 25.152344 -7.082031 C 24.949219 -7.148438 24.746094 -7.113281 24.613281 -6.980469 C 24.003906 -6.40625 23.296875 -6.136719 22.488281 -6.136719 L 12.574219 -6.136719 C 12.339844 -6.136719 12.136719 -6.203125 11.96875 -6.371094 C 11.800781 -6.507812 11.734375 -6.710938 11.734375 -6.980469 L 11.734375 -12.035156 C 11.734375 -12.273438 11.800781 -12.472656 11.96875 -12.644531 C 12.136719 -12.777344 12.339844 -12.878906 12.574219 -12.878906 L 15.542969 -12.878906 C 16.351562 -12.878906 17.058594 -12.574219 17.667969 -12.035156 C 17.835938 -11.902344 18.003906 -11.902344 18.207031 -12.003906 C 18.410156 -12.105469 18.507812 -12.273438 18.507812 -12.472656 L 18.507812 -19.960938 C 18.507812 -20.160156 18.410156 -20.296875 18.207031 -20.398438 C 18.003906 -20.5 17.835938 -20.5 17.667969 -20.398438 C 17.058594 -19.824219 16.351562 -19.554688 15.542969 -19.554688 L 12.574219 -19.554688 C 12.339844 -19.554688 12.136719 -19.621094 11.96875 -19.789062 C 11.800781 -19.925781 11.734375 -20.128906 11.734375 -20.398438 L 11.734375 -25.453125 C 11.734375 -25.691406 11.800781 -25.894531 11.96875 -26.0625 C 12.136719 -26.195312 12.339844 -26.296875 12.574219 -26.296875 L 22.488281 -26.296875 C 23.296875 -26.296875 24.003906 -25.996094 24.613281 -25.453125 C 24.746094 -25.285156 24.949219 -25.253906 25.152344 -25.355469 C 25.355469 -25.421875 25.453125 -25.589844 25.453125 -25.824219 L 25.453125 -33.378906 C 25.453125 -33.582031 25.320312 -33.75 25.117188 -33.851562 C 24.914062 -33.917969 24.714844 -33.882812 24.542969 -33.75 Z M 24.542969 -33.75 "/></g></g></g><g fill="#000000" fill-opacity="1"><g transform="translate(13.996683, 33.85807)"><g><path d="M 24.542969 -33.75 C 23.972656 -33.210938 23.296875 -32.972656 22.554688 -32.972656 L 4.585938 -32.972656 C 4.347656 -32.972656 4.179688 -32.871094 4.113281 -32.671875 C 4.011719 -32.46875 4.011719 -32.300781 4.148438 -32.128906 L 4.25 -32.03125 C 4.789062 -31.421875 5.058594 -30.714844 5.058594 -29.90625 L 5.058594 -2.527344 C 5.058594 -2.125 4.988281 -1.753906 4.855469 -1.382812 C 4.71875 -1.011719 4.519531 -0.675781 4.25 -0.40625 L 4.148438 -0.304688 C 4.011719 -0.101562 4.011719 0.0664062 4.113281 0.269531 C 4.179688 0.472656 4.347656 0.539062 4.585938 0.539062 L 22.554688 0.539062 C 23.296875 0.539062 23.972656 0.808594 24.542969 1.316406 C 24.714844 1.484375 24.914062 1.515625 25.117188 1.417969 C 25.320312 1.347656 25.453125 1.179688 25.453125 0.910156 L 25.453125 -6.609375 C 25.453125 -6.808594 25.355469 -6.980469 25.152344 -7.082031 C 24.949219 -7.148438 24.746094 -7.113281 24.613281 -6.980469 C 24.003906 -6.40625 23.296875 -6.136719 22.488281 -6.136719 L 12.574219 -6.136719 C 12.339844 -6.136719 12.136719 -6.203125 11.96875 -6.371094 C 11.800781 -6.507812 11.734375 -6.710938 11.734375 -6.980469 L 11.734375 -12.035156 C 11.734375 -12.273438 11.800781 -12.472656 11.96875 -12.644531 C 12.136719 -12.777344 12.339844 -12.878906 12.574219 -12.878906 L 15.542969 -12.878906 C 16.351562 -12.878906 17.058594 -12.574219 17.667969 -12.035156 C 17.835938 -11.902344 18.003906 -11.902344 18.207031 -12.003906 C 18.410156 -12.105469 18.507812 -12.273438 18.507812 -12.472656 L 18.507812 -19.960938 C 18.507812 -20.160156 18.410156 -20.296875 18.207031 -20.398438 C 18.003906 -20.5 17.835938 -20.5 17.667969 -20.398438 C 17.058594 -19.824219 16.351562 -19.554688 15.542969 -19.554688 L 12.574219 -19.554688 C 12.339844 -19.554688 12.136719 -19.621094 11.96875 -19.789062 C 11.800781 -19.925781 11.734375 -20.128906 11.734375 -20.398438 L 11.734375 -25.453125 C 11.734375 -25.691406 11.800781 -25.894531 11.96875 -26.0625 C 12.136719 -26.195312 12.339844 -26.296875 12.574219 -26.296875 L 22.488281 -26.296875 C 23.296875 -26.296875 24.003906 -25.996094 24.613281 -25.453125 C 24.746094 -25.285156 24.949219 -25.253906 25.152344 -25.355469 C 25.355469 -25.421875 25.453125 -25.589844 25.453125 -25.824219 L 25.453125 -33.378906 C 25.453125 -33.582031 25.320312 -33.75 25.117188 -33.851562 C 24.914062 -33.917969 24.714844 -33.882812 24.542969 -33.75 Z M 24.542969 -33.75 "/></g></g></g></svg>