<svg width="102" height="102" viewBox="0 0 102 102" fill="none" xmlns="http://www.w3.org/2000/svg">
<g opacity="0.5">
<path d="M79.349 39.4216L74.1434 63.2676H93.2278C93.8767 63.2676 94.4028 63.7936 94.4028 64.4426V70.9142C94.4028 71.5631 93.8767 72.0892 93.2278 72.0892H72.1738L65.9025 101.073C65.7856 101.614 65.3073 102 64.7541 102H57.7323C56.9833 102 56.4255 101.309 56.5839 100.577L62.7476 72.0892H31.3738L25.1025 101.073C24.9856 101.614 24.5073 102 23.9541 102H17.073C16.324 102 15.7662 101.309 15.9245 100.577L22.0883 72.0892H1.175C0.526066 72.0892 0 71.5631 0 70.9142V64.4426C0 63.7936 0.526065 63.2676 1.175 63.2676H24.0579L29.2634 39.4216H8.77224C8.12331 39.4216 7.59724 38.8956 7.59724 38.2466V31.775C7.59724 31.1261 8.12331 30.6 8.77224 30.6H31.2331L37.6452 0.926821C37.7621 0.386008 38.2404 0 38.7937 0H45.675C46.4239 0 46.9817 0.691188 46.8235 1.42318L40.5186 30.6H71.8924L78.3045 0.926821C78.4214 0.386008 78.8997 0 79.453 0H86.475C87.2239 0 87.7817 0.691188 87.6235 1.42318L81.3186 30.6H100.825C101.474 30.6 102 31.1261 102 31.775V38.2466C102 38.8956 101.474 39.4216 100.825 39.4216H79.349ZM69.9228 39.4216H38.549L33.3434 63.2676H64.7172L69.9228 39.4216Z" fill="white"/>
</g>
</svg>
