<svg width="102" height="102" viewBox="0 0 102 102" fill="none" xmlns="http://www.w3.org/2000/svg">
<g opacity="0.5" clip-path="url(#clip0_67_722)">
<path d="M50.9971 11.9506C49.3467 11.9506 48.0088 13.2885 48.0088 14.9388C48.0088 16.5892 49.3467 17.9271 50.9971 17.9271C60.8851 17.9271 68.9297 25.9704 68.9297 35.8568C68.9297 37.5071 70.2677 38.8451 71.918 38.8451C73.5683 38.8451 74.9063 37.5071 74.9063 35.8568C74.9063 22.6749 64.1808 11.9506 50.9971 11.9506Z" fill="white"/>
<path d="M43.2976 0.802206C29.7965 3.62334 18.8494 14.4656 15.9689 28.0505C13.5367 39.522 16.5339 51.0388 24.1921 59.648C27.9356 63.8561 30.0824 69.4109 30.0824 74.9036V80.8802C30.0824 84.8566 32.6856 88.2347 36.2767 89.4047C37.4577 96.3824 43.5139 101.997 51.0003 101.997C58.4848 101.997 64.5426 96.3842 65.724 89.4047C69.3151 88.2347 71.9183 84.8566 71.9183 80.88V74.9034C71.9183 69.4 74.0723 63.9119 77.9829 59.4502C83.7073 52.9198 86.8597 44.5407 86.8597 35.8567C86.8597 13.2325 66.1511 -3.97227 43.2976 0.802206ZM51.0003 96.0208C47.159 96.0208 43.791 93.3776 42.5473 89.8251H59.4532C58.2097 93.3776 54.8417 96.0208 51.0003 96.0208ZM65.9417 80.8802C65.9417 82.5279 64.6012 83.8684 62.9535 83.8684H39.0472C37.3995 83.8684 36.0589 82.5279 36.0589 80.8802V77.8919H65.9417V80.8802ZM73.4886 55.5111C69.3209 60.2658 66.7568 65.9993 66.1061 71.9153H35.8952C35.2453 65.9961 32.6878 60.2062 28.658 55.6758C22.2754 48.5008 19.7814 38.8835 21.8156 29.2903C24.1901 18.0914 33.3143 8.99408 44.5202 6.65266C63.6499 2.65494 80.8832 17.021 80.8832 35.8567C80.8832 43.0908 78.2571 50.0708 73.4886 55.5111Z" fill="white"/>
<path d="M8.96484 35.8568H2.98828C1.33795 35.8568 0 37.1948 0 38.8451C0 40.4954 1.33795 41.8334 2.98828 41.8334H8.96484C10.6152 41.8334 11.9531 40.4954 11.9531 38.8451C11.9531 37.1948 10.6152 35.8568 8.96484 35.8568Z" fill="white"/>
<path d="M10.2024 20.916L5.97634 16.69C4.80952 15.5229 2.91734 15.5229 1.75031 16.69C0.58329 17.857 0.58329 19.749 1.75031 20.916L5.97634 25.142C7.14316 26.309 9.03534 26.3092 10.2024 25.142C11.3694 23.975 11.3694 22.083 10.2024 20.916Z" fill="white"/>
<path d="M10.2024 52.5493C9.03534 51.3823 7.14316 51.3823 5.97634 52.5493L1.75031 56.7754C0.58329 57.9424 0.58329 59.8344 1.75031 61.0014C2.91714 62.1684 4.80932 62.1686 5.97634 61.0014L10.2024 56.7754C11.3694 55.6083 11.3694 53.7164 10.2024 52.5493Z" fill="white"/>
<path d="M99.0119 35.8568H93.0353C91.385 35.8568 90.047 37.1948 90.047 38.8451C90.047 40.4954 91.385 41.8334 93.0353 41.8334H99.0119C100.662 41.8334 102 40.4954 102 38.8451C102 37.1948 100.662 35.8568 99.0119 35.8568Z" fill="white"/>
<path d="M100.249 16.69C99.0826 15.5229 97.1904 15.5229 96.0234 16.69L91.7974 20.916C90.6304 22.083 90.6304 23.975 91.7974 25.142C92.9642 26.3088 94.8564 26.309 96.0234 25.142L100.249 20.916C101.416 19.749 101.416 17.857 100.249 16.69Z" fill="white"/>
<path d="M100.249 56.7754L96.0234 52.5493C94.8566 51.3823 92.9644 51.3823 91.7974 52.5493C90.6304 53.7164 90.6304 55.6083 91.7974 56.7754L96.0234 61.0014C97.1902 62.1682 99.0824 62.1684 100.249 61.0014C101.416 59.8344 101.416 57.9424 100.249 56.7754Z" fill="white"/>
</g>
<defs>
<clipPath id="clip0_67_722">
<rect width="102" height="102" fill="white"/>
</clipPath>
</defs>
</svg>
